<svg width="880" height="280" viewBox="0 0 880 280" fill="none" xmlns="http://www.w3.org/2000/svg">
  <rect width="880" height="280" rx="36" fill="#0F111A"/>
  <rect x="32" y="32" width="816" height="216" rx="28" fill="url(#panelFill)" stroke="rgba(129, 140, 248, 0.10)"/>
  <circle cx="138" cy="140" r="60" fill="url(#markFill)" stroke="rgba(129, 140, 248, 0.12)"/>
  <path d="M138 90L146.847 117.403L174.25 126.25L146.847 135.097L138 162.5L129.153 135.097L101.75 126.25L129.153 117.403L138 90Z" fill="white"/>
  <path d="M180 164L183.24 172.26L191.5 175.5L183.24 178.74L180 187L176.76 178.74L168.5 175.5L176.76 172.26L180 164Z" fill="white"/>
  <text x="274" y="122" fill="white" font-family="Inter, Instrument Sans, Arial, sans-serif" font-size="54" font-weight="700" letter-spacing="-0.03em">CreativeHub</text>
  <text x="274" y="166" fill="#B3B8D9" font-family="Inter, Instrument Sans, Arial, sans-serif" font-size="24" font-weight="500">Curate. Present. Share.</text>
  <text x="274" y="205" fill="#8F95B7" font-family="Inter, Instrument Sans, Arial, sans-serif" font-size="15" letter-spacing="0.18em">CURATOR SPARK MARK</text>
  <defs>
    <radialGradient id="panelFill" cx="0" cy="0" r="1" gradientUnits="userSpaceOnUse" gradientTransform="translate(118 72) rotate(28) scale(620 260)">
      <stop stop-color="#5F63FF" stop-opacity="0.10"/>
      <stop offset="0.24" stop-color="#24263A" stop-opacity="0.04"/>
      <stop offset="1" stop-color="#141623" stop-opacity="0.98"/>
    </radialGradient>
    <radialGradient id="markFill" cx="0" cy="0" r="1" gradientUnits="userSpaceOnUse" gradientTransform="translate(106 92) rotate(42) scale(130)">
      <stop stop-color="#5F63FF" stop-opacity="0.32"/>
      <stop offset="0.34" stop-color="#24263A" stop-opacity="0.16"/>
      <stop offset="1" stop-color="#151728"/>
    </radialGradient>
  </defs>
</svg>
